<?xml version="1.0" encoding="utf-8"?>
<!-- Generator: Adobe Illustrator 26.2.1, SVG Export Plug-In . SVG Version: 6.00 Build 0)  -->
<svg version="1.1" id="Layer_1" xmlns="http://www.w3.org/2000/svg" xmlns:xlink="http://www.w3.org/1999/xlink" x="0px" y="0px"
	 viewBox="0 0 947 141" style="enable-background:new 0 0 947 141;" xml:space="preserve">
<path d="M93.1,76.8H31.3V61.4h79.7c-2.1-6.5-8.8-12.5-20.7-12.5H32.5c-13.2,0-20.9,4.9-20.9,15.6v11.4c0,9.3,7.9,14.6,19.5,14.6
	h62.5v16.3H9.5c2.1,8.8,8.8,13.5,20.9,13.5h62.9c13.2,0,19.7-5.1,19.7-16V92.8C113,82.8,105.4,77.5,93.1,76.8z M219.2,49.1H143v71.3
	h21.6V93h56.2c15.6,0,24.2-5.3,24.2-17.9v-7.9C244.7,55.6,234.9,49.1,219.2,49.1z M226.1,71.9c0,5.1-0.9,7.9-9.3,7.9h-52.2l0.2-18.6
	h51.1c9.3,0,10.4,2.8,10.4,7.7v3H226.1z M316.7,92.6h-46l-11.4,12.1h66.4l11.4,15.8h25.5l-55-74.3l-13,16L316.7,92.6z M404,61.4
	h80.8c-2.1-8.4-10.2-12.5-21.8-12.5h-60.4c-10.4,0-20.4,4.2-20.4,15.6v39.9c0,11.4,10,15.6,20.4,15.6h61.1
	c13.9,0,18.8-3.9,21.1-13.5H404L404,61.4z M579.6,85.1V73.1h-65.3v47.4h96.4V107h-74.5V85.1L579.6,85.1z M516.6,49.1h97.3v12.5
	h-97.3V49.1z M673.8,49.1h-33.9l39.9,29.3c5.8-3.9,12.5-8.1,18.6-11.6L673.8,49.1z M723.1,85.6c-5.8,3.9-11.6,8.4-17.2,12.5
	l30.2,22.1h34.1L723.1,85.6z"/>
<path d="M932.5,7.6c-185.8,10.7-271.7,90.1-291,108.9l-3.9,3.7H672C764.9,27.1,898.4,10.6,932.5,7.6z"/>
</svg>
